<?xml version="1.0" standalone="no"?>
<!DOCTYPE svg PUBLIC "-//W3C//DTD SVG 20010904//EN"
 "http://www.w3.org/TR/2001/REC-SVG-20010904/DTD/svg10.dtd">
<svg version="1.0" xmlns="http://www.w3.org/2000/svg"
 width="182.000000pt" height="276.000000pt" viewBox="0 0 182.000000 276.000000"
 preserveAspectRatio="xMidYMid meet">

<g transform="translate(0.000000,276.000000) scale(0.100000,-0.100000)"
fill="#000000" stroke="none">
<path d="M795 2692 c-16 -11 -36 -26 -43 -34 -7 -9 -21 -14 -31 -11 -31 8 -79
-25 -102 -68 -36 -72 -41 -140 -18 -253 25 -117 20 -174 -17 -249 -21 -39 -25
-58 -20 -91 4 -23 5 -70 4 -106 -2 -36 -3 -136 -3 -223 1 -170 3 -177 54 -177
23 0 23 -1 17 -72 -4 -40 -14 -99 -22 -131 -11 -42 -12 -62 -4 -71 11 -14 -26
-160 -54 -215 -14 -27 -14 -27 32 -48 26 -12 56 -23 67 -25 18 -3 20 -11 20
-78 0 -125 5 -190 13 -190 4 0 5 57 3 126 l-3 127 23 -6 c13 -4 33 -7 44 -7
20 0 21 -5 20 -142 0 -79 -4 -149 -8 -155 -5 -7 -19 -13 -33 -13 -19 0 -24 -5
-24 -26 0 -14 -4 -23 -10 -19 -5 3 -10 24 -10 46 0 40 -8 46 -40 29 -16 -8
-17 -15 -8 -52 5 -23 7 -52 4 -64 -4 -13 -1 -24 7 -27 8 -2 12 -26 10 -78 -1
-85 -29 -161 -65 -180 -28 -15 -49 -43 -65 -85 -15 -42 4 -71 54 -80 65 -12
163 28 163 67 0 5 16 15 35 23 44 19 52 49 37 138 -15 87 -15 132 2 241 l13
89 -23 9 c-16 5 -24 16 -23 31 0 13 0 59 -1 104 -1 44 2 93 5 107 7 26 10 27
70 27 l63 0 24 -52 c27 -58 47 -213 28 -220 -6 -2 2 -43 21 -107 30 -101 31
-108 24 -227 -7 -118 -7 -122 14 -134 12 -6 52 -10 89 -9 37 1 87 -4 112 -10
44 -12 163 -11 176 1 3 4 -1 29 -11 57 -21 65 -63 101 -116 101 -29 0 -42 5
-53 23 -28 43 -64 197 -46 197 5 0 10 -5 12 -11 2 -7 11 -10 19 -7 9 3 4 10
-18 22 -31 16 -32 18 -27 60 l7 45 -36 6 c-40 8 -42 13 -52 125 -4 41 -13 97
-21 124 -18 65 -19 63 16 71 17 4 30 10 30 15 0 4 16 11 35 14 19 4 35 9 35
12 0 2 -12 33 -26 67 -32 76 -56 155 -50 165 2 4 -4 72 -15 152 -10 80 -18
148 -19 152 0 4 24 10 54 13 52 7 54 8 59 42 6 32 -15 274 -29 335 -3 15 0 37
7 50 16 29 13 71 -6 108 -19 37 -19 67 1 144 25 94 22 237 -6 311 -30 77 -105
155 -174 178 -67 23 -153 22 -191 -1z m3 -223 c69 -24 53 -129 -20 -129 -50 0
-88 66 -60 106 5 8 37 30 48 34 1 0 15 -5 32 -11z m95 -19 c-7 -27 -23 -36
-34 -19 -15 24 -10 30 33 38 3 0 4 -8 1 -19z m117 -5 c25 -13 30 -22 30 -50 0
-30 -5 -38 -34 -51 -29 -14 -37 -15 -62 -3 -60 29 -55 119 6 119 17 0 44 -7
60 -15z m-119 -74 c12 -34 27 -42 91 -50 l46 -6 -13 -38 c-56 -162 -208 -182
-269 -35 -9 21 -16 49 -16 62 0 22 3 25 28 20 40 -8 78 10 93 45 17 39 27 39
40 2z m-177 -44 c4 -19 3 -26 -4 -22 -5 3 -10 18 -10 32 0 32 5 28 14 -10z
m340 -15 c-4 -18 -11 -32 -15 -32 -9 0 -2 44 8 63 10 16 13 0 7 -31z m-134
-198 c0 -6 8 -22 18 -35 32 -42 34 -58 7 -85 -20 -20 -34 -24 -88 -24 -36 0
-68 5 -75 12 -19 19 -14 58 13 90 14 16 25 35 25 43 0 9 15 12 50 12 31 -1 50
-5 50 -13z m-175 -410 c13 -5 10 -10 -15 -25 -40 -25 -44 -24 -24 6 18 28 17
27 39 19z m256 -25 c35 -25 37 -39 6 -39 -16 0 -26 9 -34 30 -13 36 -10 37 28
9z m-141 -174 c0 -5 -5 -3 -10 5 -5 8 -10 20 -10 25 0 6 5 3 10 -5 5 -8 10
-19 10 -25z m202 -653 c10 -26 18 -67 18 -92 0 -25 6 -73 14 -107 l13 -63 -31
0 c-55 0 -69 21 -81 130 -4 36 -16 87 -27 114 -10 27 -15 53 -11 57 8 8 74 17
83 11 2 -2 12 -24 22 -50z"/>
<path d="M769 2401 c12 -8 51 -4 51 5 0 2 -15 4 -32 4 -23 0 -29 -3 -19 -9z"/>
<path d="M940 2401 c8 -6 28 -11 44 -11 39 0 31 6 -19 14 -29 5 -36 4 -25 -3z"/>
<path d="M830 2240 c-16 -10 -4 -30 18 -29 11 0 12 3 5 6 -7 2 -13 8 -13 13 0
7 20 7 60 1 3 -1 -2 -6 -10 -11 -13 -9 -13 -10 0 -10 8 0 21 4 29 9 11 7 10
11 -5 19 -22 12 -67 13 -84 2z"/>
</g>
</svg>
